<?xml version="1.0" encoding="UTF-8"?>
<svg xmlns="http://www.w3.org/2000/svg" xmlns:xlink="http://www.w3.org/1999/xlink" width="193.321pt" height="139.813pt" viewBox="0 0 193.321 139.813">
<defs>
<g>
<g id="glyph-0-0">
<path d="M 6.40625 -4.578125 C 6.40625 -5.765625 6.328125 -6.921875 5.8125 -8 C 5.234375 -9.1875 4.203125 -9.5 3.5 -9.5 C 2.671875 -9.5 1.65625 -9.09375 1.125 -7.90625 C 0.734375 -7 0.59375 -6.125 0.59375 -4.578125 C 0.59375 -3.1875 0.6875 -2.140625 1.203125 -1.125 C 1.765625 -0.046875 2.75 0.296875 3.484375 0.296875 C 4.734375 0.296875 5.453125 -0.4375 5.859375 -1.265625 C 6.375 -2.34375 6.40625 -3.75 6.40625 -4.578125 Z M 3.484375 0.015625 C 3.03125 0.015625 2.109375 -0.25 1.828125 -1.796875 C 1.671875 -2.65625 1.671875 -3.75 1.671875 -4.75 C 1.671875 -5.921875 1.671875 -6.984375 1.90625 -7.828125 C 2.140625 -8.78125 2.875 -9.21875 3.484375 -9.21875 C 4.03125 -9.21875 4.859375 -8.890625 5.125 -7.65625 C 5.3125 -6.84375 5.3125 -5.71875 5.3125 -4.75 C 5.3125 -3.78125 5.3125 -2.703125 5.15625 -1.828125 C 4.890625 -0.25 3.984375 0.015625 3.484375 0.015625 Z M 3.484375 0.015625 "/>
</g>
<g id="glyph-1-0">
<path d="M 3.703125 -5.796875 C 4.875 -5.734375 5.3125 -4.984375 5.359375 -4.5625 C 5.359375 -4.421875 5.375 -4.296875 5.515625 -4.296875 C 5.671875 -4.296875 5.671875 -4.4375 5.671875 -4.609375 L 5.671875 -5.796875 C 5.671875 -6.109375 5.640625 -6.125 5.375 -6.125 L 0.59375 -6.125 C 0.3125 -6.125 0.296875 -6.109375 0.296875 -5.84375 L 0.296875 -4.578125 C 0.296875 -4.4375 0.296875 -4.296875 0.453125 -4.296875 C 0.59375 -4.296875 0.609375 -4.453125 0.609375 -4.46875 C 0.640625 -5.203125 1.3125 -5.75 2.25 -5.796875 L 2.25 -0.828125 C 2.25 -0.390625 2.21875 -0.3125 1.65625 -0.3125 C 1.546875 -0.3125 1.390625 -0.3125 1.390625 -0.15625 C 1.390625 0 1.53125 0 1.6875 0 L 4.28125 0 C 4.4375 0 4.578125 0 4.578125 -0.15625 C 4.578125 -0.3125 4.421875 -0.3125 4.328125 -0.3125 C 3.75 -0.3125 3.703125 -0.375 3.703125 -0.828125 Z M 0.609375 -5.8125 L 1.140625 -5.8125 C 0.921875 -5.671875 0.734375 -5.5 0.609375 -5.34375 Z M 5.359375 -5.8125 L 5.359375 -5.328125 C 5.265625 -5.453125 5.0625 -5.65625 4.8125 -5.8125 Z M 2.484375 -0.3125 C 2.5625 -0.46875 2.5625 -0.703125 2.5625 -0.8125 L 2.5625 -5.8125 L 3.390625 -5.8125 L 3.390625 -0.8125 C 3.390625 -0.703125 3.390625 -0.46875 3.484375 -0.3125 Z M 2.484375 -0.3125 "/>
</g>
<g id="glyph-1-1">
<path d="M 2.328125 -5.296875 C 2.328125 -5.734375 2.359375 -5.8125 2.828125 -5.8125 C 2.921875 -5.8125 3.078125 -5.8125 3.078125 -5.96875 C 3.078125 -6.125 2.9375 -6.125 2.78125 -6.125 L 0.421875 -6.125 C 0.265625 -6.125 0.125 -6.125 0.125 -5.96875 C 0.125 -5.8125 0.296875 -5.8125 0.359375 -5.8125 C 0.875 -5.8125 0.90625 -5.734375 0.90625 -5.296875 L 0.90625 -0.828125 C 0.90625 -0.40625 0.890625 -0.3125 0.40625 -0.3125 C 0.28125 -0.3125 0.125 -0.3125 0.125 -0.15625 C 0.125 0 0.265625 0 0.421875 0 L 5.171875 0 C 5.328125 0 5.421875 0 5.453125 -0.109375 C 5.453125 -0.140625 5.71875 -1.8125 5.71875 -1.84375 C 5.71875 -1.9375 5.625 -2 5.5625 -2 C 5.484375 -2 5.421875 -1.953125 5.390625 -1.875 C 5.34375 -1.625 5.25 -1.1875 4.5 -0.71875 C 3.9375 -0.34375 3.484375 -0.3125 3.1875 -0.3125 L 2.71875 -0.3125 C 2.5 -0.3125 2.328125 -0.3125 2.328125 -0.90625 Z M 1.21875 -5.3125 C 1.21875 -5.421875 1.21875 -5.65625 1.15625 -5.8125 L 2.09375 -5.8125 C 2.015625 -5.65625 2.015625 -5.4375 2.015625 -5.3125 L 2.015625 -0.890625 C 2.015625 -0.578125 2.078125 -0.390625 2.125 -0.3125 L 1.15625 -0.3125 C 1.21875 -0.46875 1.21875 -0.703125 1.21875 -0.796875 Z M 5.171875 -0.3125 L 4.46875 -0.3125 L 4.46875 -0.328125 C 4.875 -0.546875 5.109375 -0.765625 5.25 -0.921875 Z M 5.171875 -0.3125 "/>
</g>
<g id="glyph-2-0">
<path d="M 1.984375 -3.953125 C 1.984375 -3.984375 2 -4.015625 2 -4.046875 C 2 -4.140625 1.875 -4.125 1.8125 -4.125 L 1.140625 -4.078125 C 1.046875 -4.0625 0.96875 -4.0625 0.96875 -3.921875 C 0.96875 -3.828125 1.046875 -3.828125 1.125 -3.828125 C 1.3125 -3.828125 1.34375 -3.8125 1.421875 -3.78125 C 1.421875 -3.71875 1.421875 -3.703125 1.40625 -3.609375 L 0.578125 -0.28125 C 0.546875 -0.1875 0.546875 -0.15625 0.546875 -0.140625 C 0.546875 0 0.671875 0.0625 0.75 0.0625 C 0.8125 0.0625 0.921875 0.03125 1 -0.078125 C 1.015625 -0.125 1.078125 -0.3125 1.09375 -0.4375 C 1.125 -0.546875 1.203125 -0.828125 1.234375 -0.96875 C 1.28125 -1.125 1.296875 -1.234375 1.328125 -1.375 C 1.359375 -1.46875 1.390625 -1.578125 1.546875 -1.8125 C 1.75 -2.09375 2.0625 -2.421875 2.515625 -2.421875 C 2.890625 -2.421875 2.890625 -2.125 2.890625 -2.015625 C 2.890625 -1.65625 2.640625 -1.03125 2.53125 -0.75 C 2.5 -0.65625 2.453125 -0.5625 2.453125 -0.453125 C 2.453125 -0.15625 2.71875 0.0625 3.046875 0.0625 C 3.65625 0.0625 3.953125 -0.71875 3.953125 -0.859375 C 3.953125 -0.875 3.953125 -0.9375 3.84375 -0.9375 C 3.75 -0.9375 3.75 -0.90625 3.71875 -0.796875 C 3.625 -0.484375 3.375 -0.140625 3.078125 -0.140625 C 2.953125 -0.140625 2.90625 -0.21875 2.90625 -0.34375 C 2.90625 -0.46875 2.953125 -0.578125 3 -0.703125 C 3.09375 -0.921875 3.359375 -1.59375 3.359375 -1.9375 C 3.359375 -2.40625 3.03125 -2.625 2.546875 -2.625 C 2.078125 -2.625 1.75 -2.375 1.515625 -2.09375 Z M 1.984375 -3.953125 "/>
</g>
<g id="glyph-2-1">
<path d="M 3.609375 -2.390625 C 3.609375 -2.40625 3.578125 -2.453125 3.578125 -2.46875 C 3.578125 -2.46875 3.578125 -2.46875 3.671875 -2.546875 C 4.28125 -2.953125 5.09375 -3.5 5.421875 -3.671875 C 5.625 -3.765625 5.796875 -3.8125 5.984375 -3.828125 C 6.046875 -3.828125 6.125 -3.84375 6.125 -3.984375 C 6.125 -4.015625 6.09375 -4.0625 6.046875 -4.0625 C 5.90625 -4.0625 5.75 -4.046875 5.609375 -4.046875 C 5.515625 -4.046875 5.3125 -4.046875 5.21875 -4.046875 C 5.15625 -4.046875 4.921875 -4.0625 4.875 -4.0625 C 4.828125 -4.0625 4.734375 -4.0625 4.734375 -3.921875 C 4.734375 -3.828125 4.8125 -3.828125 4.828125 -3.828125 C 4.96875 -3.828125 4.96875 -3.78125 4.96875 -3.75 C 4.96875 -3.671875 4.84375 -3.578125 4.828125 -3.5625 C 4.796875 -3.546875 4.796875 -3.546875 4.796875 -3.53125 C 4.78125 -3.53125 4.734375 -3.5 4.71875 -3.484375 L 2.125 -1.734375 L 2.59375 -3.578125 C 2.640625 -3.78125 2.65625 -3.828125 3.125 -3.828125 C 3.234375 -3.828125 3.3125 -3.828125 3.3125 -3.984375 C 3.3125 -4 3.296875 -4.0625 3.21875 -4.0625 C 3.09375 -4.0625 2.953125 -4.046875 2.8125 -4.046875 C 2.6875 -4.046875 2.546875 -4.046875 2.421875 -4.046875 C 2.28125 -4.046875 2.140625 -4.046875 2 -4.046875 C 1.875 -4.046875 1.71875 -4.0625 1.59375 -4.0625 C 1.5625 -4.0625 1.46875 -4.0625 1.46875 -3.921875 C 1.46875 -3.828125 1.546875 -3.828125 1.65625 -3.828125 C 1.765625 -3.828125 1.90625 -3.828125 2.03125 -3.78125 C 2.03125 -3.734375 2.03125 -3.6875 2.015625 -3.59375 L 1.234375 -0.5 C 1.171875 -0.28125 1.171875 -0.234375 0.71875 -0.234375 C 0.578125 -0.234375 0.5 -0.234375 0.5 -0.09375 C 0.5 -0.046875 0.546875 0 0.609375 0 C 0.734375 0 0.875 -0.015625 1 -0.015625 C 1.140625 -0.015625 1.28125 -0.03125 1.40625 -0.03125 C 1.546875 -0.03125 1.671875 -0.015625 1.8125 -0.015625 C 1.953125 -0.015625 2.09375 0 2.21875 0 C 2.265625 0 2.359375 0 2.359375 -0.15625 C 2.359375 -0.234375 2.28125 -0.234375 2.15625 -0.234375 C 2.15625 -0.234375 2.046875 -0.234375 1.9375 -0.25 C 1.8125 -0.265625 1.78125 -0.265625 1.78125 -0.328125 C 1.78125 -0.34375 1.828125 -0.5 1.84375 -0.59375 C 1.875 -0.6875 1.875 -0.703125 1.90625 -0.84375 C 1.984375 -1.15625 1.984375 -1.171875 2.046875 -1.453125 L 3.09375 -2.15625 L 4.0625 -0.40625 C 4.0625 -0.328125 4.0625 -0.25 3.796875 -0.234375 C 3.734375 -0.234375 3.640625 -0.234375 3.640625 -0.09375 C 3.640625 -0.046875 3.671875 0 3.734375 0 C 3.90625 0 4.359375 -0.03125 4.53125 -0.03125 C 4.625 -0.03125 4.734375 -0.015625 4.828125 -0.015625 C 4.921875 -0.015625 5.046875 0 5.140625 0 C 5.203125 0 5.265625 -0.03125 5.265625 -0.15625 C 5.265625 -0.234375 5.171875 -0.234375 5.125 -0.234375 C 4.8125 -0.25 4.765625 -0.328125 4.703125 -0.453125 Z M 3.609375 -2.390625 "/>
</g>
<g id="glyph-3-0">
<path d="M 2.90625 -3.578125 L 2.90625 -3.859375 L 1.609375 -3.859375 L 1.609375 -5.5 L 1.359375 -5.5 C 1.34375 -4.75 1.03125 -3.828125 0.171875 -3.796875 L 0.171875 -3.578125 L 0.953125 -3.578125 L 0.953125 -1.109375 C 0.953125 -0.109375 1.671875 0.09375 2.140625 0.09375 C 2.75 0.09375 3.0625 -0.46875 3.0625 -1.109375 L 3.0625 -1.625 L 2.8125 -1.625 L 2.8125 -1.140625 C 2.8125 -0.46875 2.53125 -0.15625 2.203125 -0.15625 C 1.609375 -0.15625 1.609375 -0.9375 1.609375 -1.09375 L 1.609375 -3.578125 Z M 2.90625 -3.578125 "/>
</g>
<g id="glyph-3-1">
<path d="M 3.578125 -2.046875 C 3.765625 -2.046875 3.8125 -2.046875 3.8125 -2.234375 C 3.8125 -3.15625 3.3125 -4 2.171875 -4 C 1.09375 -4 0.265625 -3.078125 0.265625 -1.96875 C 0.265625 -0.796875 1.203125 0.09375 2.28125 0.09375 C 3.375 0.09375 3.8125 -0.859375 3.8125 -1.0625 C 3.8125 -1.125 3.765625 -1.1875 3.6875 -1.1875 C 3.609375 -1.1875 3.578125 -1.125 3.5625 -1.078125 C 3.265625 -0.171875 2.46875 -0.15625 2.328125 -0.15625 C 1.90625 -0.15625 1.53125 -0.390625 1.328125 -0.703125 C 1.03125 -1.140625 1.03125 -1.671875 1.03125 -2.046875 Z M 1.03125 -2.265625 C 1.125 -3.640625 1.921875 -3.78125 2.171875 -3.78125 C 2.65625 -3.78125 3.203125 -3.40625 3.203125 -2.265625 Z M 1.03125 -2.265625 "/>
</g>
<g id="glyph-3-2">
<path d="M 3.078125 -3.765625 C 3.078125 -3.921875 3.078125 -4 2.96875 -4 C 2.921875 -4 2.90625 -4 2.78125 -3.890625 C 2.765625 -3.875 2.6875 -3.796875 2.640625 -3.75 C 2.359375 -3.953125 2.078125 -4 1.78125 -4 C 0.59375 -4 0.296875 -3.359375 0.296875 -2.890625 C 0.296875 -2.609375 0.421875 -2.375 0.640625 -2.1875 C 0.9375 -1.90625 1.28125 -1.84375 1.734375 -1.765625 C 2.1875 -1.671875 2.34375 -1.640625 2.53125 -1.5 C 2.625 -1.421875 2.84375 -1.25 2.84375 -0.90625 C 2.84375 -0.125 1.953125 -0.125 1.828125 -0.125 C 0.90625 -0.125 0.671875 -0.890625 0.578125 -1.375 C 0.546875 -1.453125 0.53125 -1.515625 0.421875 -1.515625 C 0.296875 -1.515625 0.296875 -1.4375 0.296875 -1.28125 L 0.296875 -0.140625 C 0.296875 0.015625 0.296875 0.09375 0.40625 0.09375 C 0.46875 0.09375 0.46875 0.09375 0.640625 -0.078125 C 0.671875 -0.140625 0.765625 -0.25 0.8125 -0.296875 C 1.1875 0.078125 1.59375 0.09375 1.828125 0.09375 C 2.921875 0.09375 3.3125 -0.546875 3.3125 -1.140625 C 3.3125 -1.546875 3.125 -1.78125 2.9375 -2 C 2.625 -2.28125 2.3125 -2.34375 1.640625 -2.46875 C 1.40625 -2.515625 0.765625 -2.640625 0.765625 -3.140625 C 0.765625 -3.4375 0.96875 -3.8125 1.78125 -3.8125 C 2.75 -3.8125 2.8125 -3.0625 2.828125 -2.84375 C 2.828125 -2.734375 2.828125 -2.6875 2.953125 -2.6875 C 3.078125 -2.6875 3.078125 -2.75 3.078125 -2.90625 Z M 3.078125 -3.765625 "/>
</g>
<g id="glyph-3-3">
<path d="M 1.59375 -2.046875 C 1.59375 -2.40625 1.6875 -3.734375 2.703125 -3.734375 L 2.703125 -3.71875 C 2.6875 -3.703125 2.546875 -3.609375 2.546875 -3.390625 C 2.546875 -3.140625 2.734375 -3 2.9375 -3 C 3.125 -3 3.328125 -3.125 3.328125 -3.390625 C 3.328125 -3.6875 3.0625 -3.953125 2.65625 -3.953125 C 2.125 -3.953125 1.75 -3.578125 1.546875 -3.015625 L 1.53125 -3.015625 L 1.53125 -3.953125 L 0.265625 -3.859375 L 0.265625 -3.578125 C 0.875 -3.578125 0.953125 -3.515625 0.953125 -3.078125 L 0.953125 -0.6875 C 0.953125 -0.28125 0.859375 -0.28125 0.265625 -0.28125 L 0.265625 0 C 0.734375 -0.015625 0.859375 -0.03125 1.3125 -0.03125 C 1.671875 -0.03125 1.890625 -0.015625 2.453125 0 L 2.453125 -0.28125 L 2.265625 -0.28125 C 1.625 -0.28125 1.59375 -0.375 1.59375 -0.703125 Z M 1.59375 -2.046875 "/>
</g>
<g id="glyph-3-4">
<path d="M 1.640625 -3.953125 L 0.359375 -3.859375 L 0.359375 -3.578125 C 0.921875 -3.578125 1.015625 -3.515625 1.015625 -3.078125 L 1.015625 -0.6875 C 1.015625 -0.28125 0.90625 -0.28125 0.328125 -0.28125 L 0.328125 0 C 0.71875 -0.015625 0.90625 -0.03125 1.3125 -0.03125 C 1.453125 -0.03125 1.828125 -0.03125 2.265625 0 L 2.265625 -0.28125 C 1.6875 -0.28125 1.640625 -0.328125 1.640625 -0.671875 Z M 1.671875 -5.5 C 1.671875 -5.78125 1.453125 -5.984375 1.1875 -5.984375 C 0.90625 -5.984375 0.703125 -5.765625 0.703125 -5.5 C 0.703125 -5.25 0.90625 -5.015625 1.1875 -5.015625 C 1.453125 -5.015625 1.671875 -5.234375 1.671875 -5.5 Z M 1.671875 -5.5 "/>
</g>
<g id="glyph-3-5">
<path d="M 3.0625 -0.640625 C 3.09375 -0.265625 3.359375 0.046875 3.75 0.046875 C 3.96875 0.046875 4.53125 -0.078125 4.53125 -0.796875 L 4.53125 -1.296875 L 4.28125 -1.296875 L 4.28125 -0.796875 C 4.28125 -0.703125 4.28125 -0.265625 3.953125 -0.265625 C 3.640625 -0.265625 3.640625 -0.6875 3.640625 -0.828125 L 3.640625 -2.390625 C 3.640625 -2.90625 3.640625 -3.203125 3.234375 -3.578125 C 2.90625 -3.875 2.46875 -4 2.03125 -4 C 1.28125 -4 0.65625 -3.625 0.65625 -3.0625 C 0.65625 -2.78125 0.84375 -2.625 1.078125 -2.625 C 1.3125 -2.625 1.484375 -2.8125 1.484375 -3.03125 C 1.484375 -3.421875 1.09375 -3.46875 1.078125 -3.46875 C 1.328125 -3.703125 1.75 -3.78125 2.015625 -3.78125 C 2.46875 -3.78125 2.96875 -3.4375 2.96875 -2.65625 L 2.96875 -2.359375 C 2.5 -2.34375 1.828125 -2.296875 1.21875 -2.015625 C 0.578125 -1.703125 0.390625 -1.234375 0.390625 -0.875 C 0.390625 -0.140625 1.25 0.09375 1.84375 0.09375 C 2.59375 0.09375 2.9375 -0.390625 3.0625 -0.640625 Z M 2.96875 -1.265625 C 2.96875 -0.390625 2.3125 -0.125 1.90625 -0.125 C 1.5 -0.125 1.09375 -0.421875 1.09375 -0.875 C 1.09375 -1.46875 1.609375 -2.09375 2.96875 -2.140625 Z M 2.96875 -1.265625 "/>
</g>
<g id="glyph-3-6">
<path d="M 1.640625 -6.203125 L 0.328125 -6.109375 L 0.328125 -5.828125 C 0.921875 -5.828125 1.015625 -5.765625 1.015625 -5.328125 L 1.015625 -0.6875 C 1.015625 -0.28125 0.90625 -0.28125 0.328125 -0.28125 L 0.328125 0 C 0.734375 -0.015625 0.90625 -0.03125 1.328125 -0.03125 C 1.75 -0.03125 1.890625 -0.015625 2.328125 0 L 2.328125 -0.28125 C 1.75 -0.28125 1.640625 -0.28125 1.640625 -0.6875 Z M 1.640625 -6.203125 "/>
</g>
<g id="glyph-3-7">
<path d="M 3.046875 2.125 C 3.046875 2.078125 3.015625 2.0625 2.96875 2 C 1.8125 0.9375 1.46875 -0.671875 1.46875 -2.234375 C 1.46875 -3.625 1.734375 -5.296875 3 -6.5 C 3.03125 -6.53125 3.046875 -6.5625 3.046875 -6.609375 C 3.046875 -6.671875 3 -6.703125 2.9375 -6.703125 C 2.828125 -6.703125 2.03125 -6.0625 1.546875 -5.078125 C 1.125 -4.234375 0.90625 -3.3125 0.90625 -2.25 C 0.90625 -1.59375 0.984375 -0.578125 1.46875 0.46875 C 2 1.578125 2.828125 2.21875 2.9375 2.21875 C 3 2.21875 3.046875 2.1875 3.046875 2.125 Z M 3.046875 2.125 "/>
</g>
<g id="glyph-3-8">
<path d="M 2.65625 -2.25 C 2.65625 -2.96875 2.5625 -3.953125 2.09375 -4.953125 C 1.5625 -6.046875 0.734375 -6.703125 0.625 -6.703125 C 0.53125 -6.703125 0.515625 -6.625 0.515625 -6.609375 C 0.515625 -6.5625 0.53125 -6.53125 0.59375 -6.46875 C 1.125 -6 2.09375 -4.796875 2.09375 -2.25 C 2.09375 -0.96875 1.875 0.8125 0.578125 2.015625 C 0.546875 2.046875 0.515625 2.078125 0.515625 2.125 C 0.515625 2.15625 0.53125 2.21875 0.625 2.21875 C 0.734375 2.21875 1.53125 1.578125 2.015625 0.609375 C 2.453125 -0.25 2.65625 -1.171875 2.65625 -2.25 Z M 2.65625 -2.25 "/>
</g>
<g id="glyph-4-0">
<path d="M 3.6875 0.359375 C 3.671875 0.46875 3.671875 0.59375 3.671875 0.703125 C 3.671875 1.125 3.734375 1.734375 4.4375 1.734375 C 5.5 1.734375 5.96875 0.140625 5.96875 0 C 5.96875 -0.046875 5.921875 -0.109375 5.84375 -0.109375 C 5.78125 -0.109375 5.75 -0.046875 5.734375 0.015625 C 5.515625 0.625 5 0.84375 4.671875 0.84375 C 4.265625 0.84375 4.125 0.59375 4.046875 -0.046875 C 5.984375 -0.890625 6.78125 -2.640625 6.78125 -3.875 C 6.78125 -5.28125 5.828125 -6.296875 4.421875 -6.296875 C 2.421875 -6.296875 0.453125 -4.25 0.453125 -2.203125 C 0.453125 -0.734375 1.453125 0.203125 2.8125 0.203125 C 3.171875 0.203125 3.546875 0.109375 3.6875 0.078125 Z M 2.265625 -0.15625 C 1.859375 -0.328125 1.265625 -0.78125 1.265625 -1.9375 C 1.265625 -2.40625 1.40625 -3.859375 2.375 -5 C 2.84375 -5.546875 3.59375 -6.046875 4.359375 -6.046875 C 5.25 -6.046875 5.96875 -5.390625 5.96875 -4.140625 C 5.96875 -3.25 5.515625 -1.234375 3.984375 -0.375 C 3.90625 -0.859375 3.734375 -1.328125 3.15625 -1.328125 C 2.65625 -1.328125 2.21875 -0.875 2.21875 -0.421875 C 2.21875 -0.34375 2.25 -0.21875 2.265625 -0.15625 Z M 3.703125 -0.234375 C 3.578125 -0.171875 3.234375 -0.046875 2.875 -0.046875 C 2.75 -0.046875 2.453125 -0.046875 2.453125 -0.421875 C 2.453125 -0.75 2.78125 -1.109375 3.171875 -1.109375 C 3.703125 -1.109375 3.703125 -0.625 3.703125 -0.234375 Z M 3.703125 -0.234375 "/>
</g>
<g id="glyph-4-1">
<path d="M 3.421875 -3.390625 C 3.25 -3.71875 2.96875 -3.953125 2.5625 -3.953125 C 1.53125 -3.953125 0.375 -2.71875 0.375 -1.34375 C 0.375 -0.359375 1 0.09375 1.59375 0.09375 C 2.1875 0.09375 2.65625 -0.390625 2.796875 -0.546875 C 2.890625 -0.0625 3.34375 0.09375 3.625 0.09375 C 3.890625 0.09375 4.109375 -0.015625 4.3125 -0.390625 C 4.46875 -0.6875 4.59375 -1.25 4.59375 -1.28125 C 4.59375 -1.328125 4.5625 -1.390625 4.484375 -1.390625 C 4.375 -1.390625 4.359375 -1.34375 4.328125 -1.171875 C 4.125 -0.390625 3.9375 -0.125 3.65625 -0.125 C 3.4375 -0.125 3.375 -0.34375 3.375 -0.53125 C 3.375 -0.703125 3.421875 -0.890625 3.5 -1.203125 L 3.734375 -2.125 C 3.796875 -2.34375 3.953125 -3.015625 3.984375 -3.140625 C 4.015625 -3.265625 4.078125 -3.484375 4.078125 -3.515625 C 4.078125 -3.65625 3.953125 -3.765625 3.796875 -3.765625 C 3.6875 -3.765625 3.453125 -3.703125 3.421875 -3.390625 Z M 2.828125 -1.09375 C 2.78125 -0.921875 2.78125 -0.90625 2.640625 -0.734375 C 2.328125 -0.359375 1.953125 -0.125 1.625 -0.125 C 1.1875 -0.125 1.03125 -0.578125 1.03125 -0.96875 C 1.03125 -1.40625 1.296875 -2.4375 1.515625 -2.859375 C 1.796875 -3.390625 2.203125 -3.734375 2.5625 -3.734375 C 3.15625 -3.734375 3.296875 -3.015625 3.296875 -2.953125 C 3.296875 -2.90625 3.28125 -2.84375 3.265625 -2.8125 Z M 2.828125 -1.09375 "/>
</g>
<g id="glyph-4-2">
<path d="M 4.359375 -2.90625 C 4.40625 -3.140625 4.515625 -3.5625 4.515625 -3.59375 C 4.515625 -3.703125 4.4375 -3.859375 4.234375 -3.859375 C 4.109375 -3.859375 3.984375 -3.765625 3.921875 -3.671875 C 3.875 -3.578125 3.265625 -1.15625 3.203125 -0.859375 C 3.015625 -0.53125 2.65625 -0.125 2.171875 -0.125 C 1.625 -0.125 1.625 -0.6875 1.625 -0.859375 C 1.625 -1.265625 1.734375 -1.703125 2.125 -2.703125 C 2.1875 -2.90625 2.25 -3.03125 2.25 -3.203125 C 2.25 -3.640625 1.90625 -3.953125 1.46875 -3.953125 C 0.609375 -3.953125 0.265625 -2.6875 0.265625 -2.578125 C 0.265625 -2.5 0.328125 -2.46875 0.390625 -2.46875 C 0.484375 -2.46875 0.484375 -2.515625 0.53125 -2.640625 C 0.71875 -3.28125 1.0625 -3.734375 1.453125 -3.734375 C 1.640625 -3.734375 1.65625 -3.59375 1.65625 -3.4375 C 1.65625 -3.28125 1.625 -3.125 1.546875 -2.90625 C 1.125 -1.796875 1.015625 -1.421875 1.015625 -0.984375 C 1.015625 0 1.8125 0.09375 2.140625 0.09375 C 2.65625 0.09375 3.015625 -0.21875 3.234375 -0.484375 C 3.40625 0.09375 4 0.09375 4.046875 0.09375 C 4.3125 0.09375 4.53125 -0.03125 4.71875 -0.375 C 4.875 -0.671875 5.015625 -1.25 5.015625 -1.28125 C 5.015625 -1.328125 4.984375 -1.390625 4.890625 -1.390625 C 4.796875 -1.390625 4.78125 -1.34375 4.75 -1.171875 C 4.5625 -0.46875 4.375 -0.125 4.078125 -0.125 C 3.859375 -0.125 3.796875 -0.3125 3.796875 -0.53125 C 3.796875 -0.703125 3.84375 -0.890625 3.921875 -1.203125 L 4.140625 -2.125 Z M 4.359375 -2.90625 "/>
</g>
<g id="glyph-4-3">
<path d="M 1.625 -0.140625 C 1.625 0.15625 1.625 0.890625 0.96875 1.515625 C 0.90625 1.578125 0.90625 1.578125 0.90625 1.625 C 0.90625 1.6875 0.96875 1.71875 1.03125 1.71875 C 1.125 1.71875 1.84375 1.03125 1.84375 -0.015625 C 1.84375 -0.578125 1.65625 -0.96875 1.265625 -0.96875 C 0.96875 -0.96875 0.78125 -0.734375 0.78125 -0.484375 C 0.78125 -0.234375 0.96875 0 1.265625 0 C 1.40625 0 1.53125 -0.046875 1.625 -0.140625 Z M 1.625 -0.140625 "/>
</g>
<g id="glyph-4-4">
<path d="M 4.296875 -3.296875 C 4.296875 -3.921875 3.96875 -3.953125 3.890625 -3.953125 C 3.671875 -3.953125 3.4375 -3.71875 3.4375 -3.515625 C 3.4375 -3.375 3.515625 -3.3125 3.578125 -3.25 C 3.8125 -3.03125 3.890625 -2.75 3.890625 -2.515625 C 3.890625 -2.125 3.328125 -0.125 2.296875 -0.125 C 1.625 -0.125 1.625 -0.75 1.625 -0.90625 C 1.625 -1.296875 1.75 -1.75 2.0625 -2.5625 C 2.203125 -2.9375 2.25 -3.03125 2.25 -3.203125 C 2.25 -3.640625 1.90625 -3.953125 1.46875 -3.953125 C 0.609375 -3.953125 0.265625 -2.6875 0.265625 -2.578125 C 0.265625 -2.5 0.328125 -2.46875 0.390625 -2.46875 C 0.484375 -2.46875 0.484375 -2.515625 0.53125 -2.640625 C 0.71875 -3.28125 1.078125 -3.734375 1.453125 -3.734375 C 1.625 -3.734375 1.65625 -3.609375 1.65625 -3.4375 C 1.65625 -3.28125 1.625 -3.125 1.546875 -2.90625 C 1.21875 -2.046875 1.015625 -1.46875 1.015625 -1.03125 C 1.015625 -0.1875 1.640625 0.09375 2.265625 0.09375 C 3.765625 0.09375 4.296875 -2.71875 4.296875 -3.296875 Z M 4.296875 -3.296875 "/>
</g>
<g id="glyph-5-0">
<path d="M 2.46875 -3.859375 C 3.25 -3.828125 3.546875 -3.3125 3.5625 -3.03125 C 3.578125 -2.953125 3.578125 -2.859375 3.671875 -2.859375 C 3.78125 -2.859375 3.78125 -2.953125 3.78125 -3.078125 L 3.78125 -3.859375 C 3.78125 -4.078125 3.75 -4.078125 3.578125 -4.078125 L 0.390625 -4.078125 C 0.203125 -4.078125 0.203125 -4.0625 0.203125 -3.890625 L 0.203125 -3.046875 C 0.203125 -2.953125 0.203125 -2.859375 0.296875 -2.859375 C 0.40625 -2.859375 0.40625 -2.96875 0.40625 -2.96875 C 0.421875 -3.46875 0.875 -3.828125 1.5 -3.859375 L 1.5 -0.546875 C 1.5 -0.25 1.46875 -0.203125 1.09375 -0.203125 C 1.03125 -0.203125 0.921875 -0.203125 0.921875 -0.109375 C 0.921875 0 1.015625 0 1.125 0 L 2.84375 0 C 2.953125 0 3.046875 0 3.046875 -0.109375 C 3.046875 -0.203125 2.953125 -0.203125 2.875 -0.203125 C 2.5 -0.203125 2.46875 -0.25 2.46875 -0.546875 Z M 0.40625 -3.875 L 0.765625 -3.875 C 0.609375 -3.78125 0.484375 -3.65625 0.40625 -3.5625 Z M 3.578125 -3.875 L 3.578125 -3.546875 C 3.5 -3.640625 3.375 -3.765625 3.203125 -3.875 Z M 1.65625 -0.203125 C 1.703125 -0.3125 1.703125 -0.46875 1.703125 -0.546875 L 1.703125 -3.875 L 2.265625 -3.875 L 2.265625 -0.546875 C 2.265625 -0.46875 2.265625 -0.3125 2.3125 -0.203125 Z M 1.65625 -0.203125 "/>
</g>
<g id="glyph-5-1">
<path d="M 1.546875 -3.53125 C 1.546875 -3.828125 1.578125 -3.875 1.875 -3.875 C 1.953125 -3.875 2.046875 -3.875 2.046875 -3.96875 C 2.046875 -4.078125 1.953125 -4.078125 1.84375 -4.078125 L 0.28125 -4.078125 C 0.171875 -4.078125 0.078125 -4.078125 0.078125 -3.96875 C 0.078125 -3.875 0.203125 -3.875 0.25 -3.875 C 0.578125 -3.875 0.609375 -3.828125 0.609375 -3.53125 L 0.609375 -0.546875 C 0.609375 -0.265625 0.59375 -0.203125 0.28125 -0.203125 C 0.1875 -0.203125 0.078125 -0.203125 0.078125 -0.109375 C 0.078125 0 0.171875 0 0.28125 0 L 3.4375 0 C 3.546875 0 3.609375 0 3.625 -0.078125 C 3.640625 -0.09375 3.796875 -1.203125 3.796875 -1.21875 C 3.796875 -1.296875 3.75 -1.328125 3.703125 -1.328125 C 3.65625 -1.328125 3.609375 -1.296875 3.59375 -1.25 C 3.5625 -1.078125 3.5 -0.78125 3 -0.46875 C 2.625 -0.234375 2.3125 -0.203125 2.125 -0.203125 L 1.8125 -0.203125 C 1.671875 -0.203125 1.546875 -0.203125 1.546875 -0.609375 Z M 0.8125 -3.546875 C 0.8125 -3.609375 0.8125 -3.765625 0.765625 -3.875 L 1.390625 -3.875 C 1.34375 -3.765625 1.34375 -3.625 1.34375 -3.546875 L 1.34375 -0.59375 C 1.34375 -0.375 1.390625 -0.265625 1.40625 -0.203125 L 0.765625 -0.203125 C 0.8125 -0.3125 0.8125 -0.46875 0.8125 -0.53125 Z M 3.4375 -0.203125 L 2.96875 -0.203125 L 2.96875 -0.21875 C 3.25 -0.359375 3.40625 -0.515625 3.5 -0.609375 Z M 3.4375 -0.203125 "/>
</g>
<g id="glyph-6-0">
<path d="M 1.625 -0.828125 C 2.125 -1.53125 2.28125 -2.15625 2.390625 -2.59375 C 2.71875 -3.875 3.0625 -4.875 3.59375 -5.5 C 3.734375 -5.65625 3.8125 -5.75 4.125 -5.75 C 4.640625 -5.75 4.765625 -5.3125 4.765625 -4.984375 C 4.765625 -4.828125 4.75 -4.703125 4.75 -4.671875 C 4.75 -4.625 4.796875 -4.609375 4.8125 -4.609375 C 4.9375 -4.609375 5.1875 -4.71875 5.375 -4.859375 C 5.5625 -4.984375 5.65625 -5.046875 5.65625 -5.4375 C 5.65625 -5.796875 5.484375 -6.296875 4.859375 -6.296875 C 4.125 -6.296875 3.25 -5.796875 2.765625 -5.171875 C 2.09375 -4.359375 1.78125 -3.1875 1.5 -2.09375 C 1.328125 -1.40625 1.015625 -0.671875 0.59375 -0.25 C 0.28125 0.046875 0.28125 0.109375 0.28125 0.140625 C 0.28125 0.15625 0.296875 0.203125 0.359375 0.203125 C 0.375 0.203125 0.734375 0.203125 1.203125 -0.3125 C 1.625 -0.296875 1.828125 -0.265625 2.5625 -0.078125 C 3.109375 0.078125 3.546875 0.203125 4.015625 0.203125 C 4.609375 0.203125 5.140625 -0.171875 5.328125 -0.296875 C 5.921875 -0.765625 6.015625 -1.203125 6.015625 -1.25 C 6.015625 -1.28125 5.984375 -1.296875 5.9375 -1.296875 C 5.828125 -1.296875 5.625 -1.21875 5.484375 -1.125 C 5.203125 -0.953125 5.171875 -0.84375 5.125 -0.765625 C 5.109375 -0.703125 5.078125 -0.578125 4.96875 -0.4375 C 4.90625 -0.359375 4.890625 -0.359375 4.75 -0.359375 C 4.3125 -0.359375 3.859375 -0.484375 3.34375 -0.625 C 2.921875 -0.734375 2.46875 -0.859375 2 -0.859375 C 1.953125 -0.859375 1.78125 -0.859375 1.625 -0.828125 Z M 1.625 -0.828125 "/>
</g>
</g>
</defs>
<path fill="none" stroke-width="0.99628" stroke-linecap="butt" stroke-linejoin="miter" stroke="rgb(0%, 0%, 0%)" stroke-opacity="1" stroke-miterlimit="10" d="M -4.250484 -0.00162268 L -11.33779 -0.00162268 L -11.33779 113.387426 L -4.250484 113.387426 " transform="matrix(0.9965, 0, 0, -0.9965, 61.903577, 133.02182)"/>
<path fill="none" stroke-width="0.99628" stroke-linecap="butt" stroke-linejoin="miter" stroke="rgb(0%, 0%, 0%)" stroke-opacity="1" stroke-miterlimit="10" d="M 117.640979 -0.00162268 L 124.724365 -0.00162268 L 124.724365 113.387426 L 117.640979 113.387426 " transform="matrix(0.9965, 0, 0, -0.9965, 61.903577, 133.02182)"/>
<path fill-rule="nonzero" fill="rgb(77.999878%, 77.999878%, 100%)" fill-opacity="1" d="M 61.902344 69.464844 L 61.902344 20.03125 L 111.335938 20.03125 L 111.335938 69.464844 Z M 61.902344 69.464844 "/>
<path fill-rule="nonzero" fill="rgb(77.999878%, 88.999939%, 88.999939%)" fill-opacity="1" d="M 111.335938 69.464844 L 111.335938 20.03125 L 174.894531 20.03125 L 174.894531 69.464844 Z M 111.335938 69.464844 "/>
<path fill-rule="nonzero" fill="rgb(95.999146%, 95.999146%, 95.999146%)" fill-opacity="1" d="M 61.902344 133.023438 L 61.902344 69.464844 L 111.335938 69.464844 L 111.335938 133.023438 Z M 61.902344 133.023438 "/>
<path fill="none" stroke-width="0.79701" stroke-linecap="butt" stroke-linejoin="miter" stroke="rgb(0%, 0%, 0%)" stroke-opacity="1" stroke-miterlimit="10" d="M -0.00123708 -0.00162268 L -0.00123708 113.387426 L 113.387812 113.387426 L 113.387812 -0.00162268 Z M -0.00123708 -0.00162268 " transform="matrix(0.9965, 0, 0, -0.9965, 61.903577, 133.02182)"/>
<path fill="none" stroke-width="0.79701" stroke-linecap="butt" stroke-linejoin="miter" stroke="rgb(0%, 0%, 0%)" stroke-opacity="1" stroke-miterlimit="10" d="M 49.605982 -0.00162268 L 49.605982 113.387426 " transform="matrix(0.9965, 0, 0, -0.9965, 61.903577, 133.02182)"/>
<path fill="none" stroke-width="0.79701" stroke-linecap="butt" stroke-linejoin="miter" stroke="rgb(0%, 0%, 0%)" stroke-opacity="1" stroke-miterlimit="10" d="M -0.00123708 63.780207 L 113.387812 63.780207 " transform="matrix(0.9965, 0, 0, -0.9965, 61.903577, 133.02182)"/>
<g fill="rgb(64.99939%, 64.99939%, 64.99939%)" fill-opacity="1">
<use xlink:href="#glyph-0-0" x="83.121055" y="105.850255"/>
</g>
<path fill-rule="nonzero" fill="rgb(100%, 64.99939%, 29.998779%)" fill-opacity="1" d="M 114.726562 79.070312 L 114.726562 72.289062 L 121.507812 72.289062 L 121.507812 79.070312 Z M 114.726562 79.070312 "/>
<path fill-rule="nonzero" fill="rgb(100%, 64.99939%, 29.998779%)" fill-opacity="1" d="M 124.839844 89.179688 L 124.839844 82.402344 L 131.617188 82.402344 L 131.617188 89.179688 Z M 124.839844 89.179688 "/>
<path fill-rule="nonzero" fill="rgb(100%, 64.99939%, 29.998779%)" fill-opacity="1" d="M 134.953125 99.292969 L 134.953125 92.515625 L 141.730469 92.515625 L 141.730469 99.292969 Z M 134.953125 99.292969 "/>
<path fill-rule="nonzero" fill="rgb(100%, 64.99939%, 29.998779%)" fill-opacity="1" d="M 145.066406 109.40625 L 145.066406 102.628906 L 151.84375 102.628906 L 151.84375 109.40625 Z M 145.066406 109.40625 "/>
<path fill-rule="nonzero" fill="rgb(100%, 64.99939%, 29.998779%)" fill-opacity="1" d="M 155.175781 119.519531 L 155.175781 112.738281 L 161.957031 112.738281 L 161.957031 119.519531 Z M 155.175781 119.519531 "/>
<path fill-rule="nonzero" fill="rgb(100%, 64.99939%, 29.998779%)" fill-opacity="1" d="M 165.289062 129.632812 L 165.289062 122.851562 L 172.070312 122.851562 L 172.070312 129.632812 Z M 165.289062 129.632812 "/>
<g fill="rgb(0%, 0%, 59.999084%)" fill-opacity="1">
<use xlink:href="#glyph-1-0" x="10.551938" y="47.297908"/>
</g>
<g fill="rgb(0%, 0%, 59.999084%)" fill-opacity="1">
<use xlink:href="#glyph-2-0" x="16.508019" y="48.356191"/>
</g>
<g fill="rgb(0%, 0%, 59.999084%)" fill-opacity="1">
<use xlink:href="#glyph-3-0" x="24.388341" y="47.297908"/>
<use xlink:href="#glyph-3-1" x="27.959668" y="47.297908"/>
<use xlink:href="#glyph-3-2" x="32.044758" y="47.297908"/>
<use xlink:href="#glyph-3-0" x="35.667014" y="47.297908"/>
<use xlink:href="#glyph-3-2" x="39.23834" y="47.297908"/>
</g>
<g fill="rgb(69.999695%, 34.999084%, 0%)" fill-opacity="1">
<use xlink:href="#glyph-4-0" x="9.265457" y="103.427763"/>
</g>
<g fill="rgb(69.999695%, 34.999084%, 0%)" fill-opacity="1">
<use xlink:href="#glyph-2-0" x="16.508019" y="104.487043"/>
</g>
<g fill="rgb(69.999695%, 34.999084%, 0%)" fill-opacity="1">
<use xlink:href="#glyph-3-0" x="24.388341" y="103.427763"/>
<use xlink:href="#glyph-3-1" x="27.959668" y="103.427763"/>
<use xlink:href="#glyph-3-2" x="32.044758" y="103.427763"/>
<use xlink:href="#glyph-3-0" x="35.667014" y="103.427763"/>
<use xlink:href="#glyph-3-2" x="39.23834" y="103.427763"/>
</g>
<g fill="rgb(0%, 0%, 69.999695%)" fill-opacity="1">
<use xlink:href="#glyph-1-0" x="69.462029" y="15.622162"/>
</g>
<g fill="rgb(0%, 0%, 69.999695%)" fill-opacity="1">
<use xlink:href="#glyph-2-0" x="75.419106" y="16.680445"/>
</g>
<g fill="rgb(0%, 0%, 69.999695%)" fill-opacity="1">
<use xlink:href="#glyph-3-0" x="83.299428" y="15.622162"/>
<use xlink:href="#glyph-3-3" x="86.870755" y="15.622162"/>
<use xlink:href="#glyph-3-4" x="90.462632" y="15.622162"/>
<use xlink:href="#glyph-3-5" x="93.013579" y="15.622162"/>
<use xlink:href="#glyph-3-6" x="97.605285" y="15.622162"/>
<use xlink:href="#glyph-3-2" x="100.156232" y="15.622162"/>
</g>
<g fill="rgb(0%, 29.998779%, 29.998779%)" fill-opacity="1">
<use xlink:href="#glyph-1-1" x="125.956604" y="15.622162"/>
</g>
<g fill="rgb(0%, 29.998779%, 29.998779%)" fill-opacity="1">
<use xlink:href="#glyph-2-0" x="131.91368" y="16.680445"/>
</g>
<g fill="rgb(0%, 29.998779%, 29.998779%)" fill-opacity="1">
<use xlink:href="#glyph-3-0" x="139.794003" y="15.622162"/>
<use xlink:href="#glyph-3-3" x="143.365329" y="15.622162"/>
<use xlink:href="#glyph-3-4" x="146.957206" y="15.622162"/>
<use xlink:href="#glyph-3-5" x="149.508154" y="15.622162"/>
<use xlink:href="#glyph-3-6" x="154.099859" y="15.622162"/>
<use xlink:href="#glyph-3-2" x="156.650807" y="15.622162"/>
</g>
<g fill="rgb(0%, 0%, 69.999695%)" fill-opacity="1">
<use xlink:href="#glyph-4-1" x="69.235824" y="46.983014"/>
</g>
<g fill="rgb(0%, 0%, 69.999695%)" fill-opacity="1">
<use xlink:href="#glyph-3-7" x="74.100941" y="46.983014"/>
</g>
<g fill="rgb(0%, 0%, 69.999695%)" fill-opacity="1">
<use xlink:href="#glyph-4-2" x="77.672267" y="46.983014"/>
</g>
<g fill="rgb(0%, 0%, 69.999695%)" fill-opacity="1">
<use xlink:href="#glyph-5-0" x="82.956632" y="48.009409"/>
</g>
<g fill="rgb(0%, 0%, 69.999695%)" fill-opacity="1">
<use xlink:href="#glyph-4-3" x="87.423942" y="46.983014"/>
</g>
<g fill="rgb(0%, 0%, 69.999695%)" fill-opacity="1">
<use xlink:href="#glyph-4-4" x="91.502777" y="46.983014"/>
</g>
<g fill="rgb(0%, 0%, 69.999695%)" fill-opacity="1">
<use xlink:href="#glyph-5-0" x="95.96594" y="48.009409"/>
</g>
<g fill="rgb(0%, 0%, 69.999695%)" fill-opacity="1">
<use xlink:href="#glyph-3-8" x="100.433249" y="46.983014"/>
</g>
<g fill="rgb(0%, 29.998779%, 29.998779%)" fill-opacity="1">
<use xlink:href="#glyph-4-1" x="125.730398" y="46.983014"/>
</g>
<g fill="rgb(0%, 29.998779%, 29.998779%)" fill-opacity="1">
<use xlink:href="#glyph-3-7" x="130.595515" y="46.983014"/>
</g>
<g fill="rgb(0%, 29.998779%, 29.998779%)" fill-opacity="1">
<use xlink:href="#glyph-4-2" x="134.166842" y="46.983014"/>
</g>
<g fill="rgb(0%, 29.998779%, 29.998779%)" fill-opacity="1">
<use xlink:href="#glyph-5-1" x="139.451207" y="48.009409"/>
</g>
<g fill="rgb(0%, 29.998779%, 29.998779%)" fill-opacity="1">
<use xlink:href="#glyph-4-3" x="143.918516" y="46.983014"/>
</g>
<g fill="rgb(0%, 29.998779%, 29.998779%)" fill-opacity="1">
<use xlink:href="#glyph-4-4" x="147.997352" y="46.983014"/>
</g>
<g fill="rgb(0%, 29.998779%, 29.998779%)" fill-opacity="1">
<use xlink:href="#glyph-5-0" x="152.460514" y="48.009409"/>
</g>
<g fill="rgb(0%, 29.998779%, 29.998779%)" fill-opacity="1">
<use xlink:href="#glyph-3-8" x="156.927824" y="46.983014"/>
</g>
<g fill="rgb(79.998779%, 39.99939%, 0%)" fill-opacity="1">
<use xlink:href="#glyph-6-0" x="136.442773" y="121.595951"/>
</g>
<g fill="rgb(79.998779%, 39.99939%, 0%)" fill-opacity="1">
<use xlink:href="#glyph-2-1" x="142.767559" y="122.589462"/>
</g>
</svg>
